<?xml version="1.0" standalone="no"?>
<!DOCTYPE svg PUBLIC "-//W3C//DTD SVG 20010904//EN"
 "http://www.w3.org/TR/2001/REC-SVG-20010904/DTD/svg10.dtd">
<svg version="1.0" xmlns="http://www.w3.org/2000/svg"
 width="942.000000pt" height="942.000000pt" viewBox="0 0 942.000000 942.000000"
 preserveAspectRatio="xMidYMid meet">
<metadata>
Created by potrace 1.11, written by Peter Selinger 2001-2013
</metadata>
<g transform="translate(0.000000,942.000000) scale(0.100000,-0.100000)"
fill="#000000" stroke="none">
<path d="M2760 8923 c-235 -38 -401 -116 -552 -261 -48 -47 -108 -114 -132
-151 -70 -103 -1874 -3235 -1922 -3336 -67 -141 -88 -234 -88 -400 -1 -158 14
-239 67 -370 40 -98 1899 -3322 1973 -3422 135 -182 371 -323 604 -363 46 -8
639 -10 2045 -8 l1980 3 75 23 c106 33 244 102 320 160 72 54 172 158 218 224
64 94 1925 3336 1947 3392 55 140 60 170 60 361 l0 180 -37 108 c-21 59 -64
153 -96 210 -1229 2134 -1846 3198 -1891 3261 -128 179 -308 300 -549 369
l-77 22 -1960 1 c-1078 1 -1971 0 -1985 -3z m3333 -1911 c252 -73 437 -224
548 -447 89 -179 92 -200 97 -663 2 -222 1 -419 -3 -438 -3 -19 -15 -44 -26
-55 -19 -19 -40 -19 -866 -19 l-848 0 837 -837 c569 -570 843 -852 857 -880
42 -83 53 -163 41 -288 -28 -300 -141 -553 -342 -761 -182 -189 -393 -306
-648 -361 -80 -17 -165 -18 -1370 -18 l-1285 0 -78 23 c-226 65 -416 222 -517
427 -85 173 -83 159 -87 680 -4 458 -4 461 17 488 l21 27 857 0 857 0 -836
838 c-879 881 -873 874 -905 996 -37 140 1 398 88 601 139 323 438 579 783
672 151 40 192 41 1485 39 l1245 -1 78 -23z"/>
</g>
</svg>
